<?xml version="1.0" encoding="utf-8"?>
<!-- Generator: Adobe Illustrator 21.1.0, SVG Export Plug-In . SVG Version: 6.00 Build 0)  -->
<svg version="1.1" id="Layer_1" xmlns="http://www.w3.org/2000/svg" xmlns:xlink="http://www.w3.org/1999/xlink" x="0px" y="0px"
	 viewBox="0 0 720 720" style="enable-background:new 0 0 720 720;" xml:space="preserve">
<style type="text/css">
	.st0{fill:#989999;}
	.st1{fill:none;stroke:#989999;stroke-width:2.8346;stroke-miterlimit:10;}
	.st2{fill:#4E4E4E;}
	.st3{fill:none;stroke:#818282;stroke-width:1.4173;stroke-miterlimit:10;}
	.st4{fill:none;stroke:#818282;stroke-width:1.4173;stroke-linejoin:bevel;stroke-miterlimit:10;}
	.st5{fill:#818282;}
	.st6{fill:#AFDBF1;}
	.st7{fill:none;}
</style>
<polygon class="st0" points="227.1,68.8 246.5,68.8 246.5,95.1 305.5,95.1 305.5,114.7 246.5,114.7 246.5,211.5 227.1,211.5 "/>
<polygon class="st0" points="623.3,94.9 642.7,94.9 642.7,114.3 642.7,578.2 642.7,597.6 623.3,597.6 601.3,597.6 601.7,578.2 
	623.3,578.2 623.3,452.6 604.6,452.6 604.6,442.9 623.3,442.9 623.3,114.3 582,114.3 582,94.9 "/>
<polygon class="st0" points="227.1,344.6 246.5,344.6 246.5,433.2 246.5,442.9 382.2,442.9 382.2,452.6 246.5,452.6 227.1,452.6 
	152,452.6 152,487.9 132.6,487.9 132.6,452.6 106.8,452.6 106.8,433.2 227.1,433.2 "/>
<polygon class="st0" points="132.6,588 152,588 152,632.9 363.5,632.9 363.5,522.9 363.5,513.2 373.2,513.2 422.7,513.2 
	422.7,522.9 373.2,522.9 373.2,632.9 509.4,632.9 509.4,597.6 509.4,578.2 509.4,522.9 474.2,522.9 474.2,513.2 509.4,513.2 
	519,513.2 519,522.9 519,578.2 528.8,578.2 544.9,578.2 544.9,597.6 528.8,597.6 528.8,632.9 528.8,652.3 509.4,652.3 152,652.3 
	132.6,652.3 132.6,632.9 "/>
<path class="st0" d="M305.5,114.3V110h98.1v4.3H305.5z M305.5,99.2v-4.3h98.1v4.3H305.5z"/>
<polygon class="st0" points="403.5,114.3 403.5,94.9 483.4,94.9 483.4,114.3 464.8,114.3 464.8,442.9 544.8,442.9 544.8,452.6 
	441.6,452.6 441.6,442.9 455.1,442.9 455.1,114.3 "/>
<path class="st0" d="M483.4,114.3V110H582v4.3H483.4z M483.4,99.2v-4.3H582v4.3H483.4z"/>
<path class="st0" d="M152,588h-4.3V487.9h4.3V588z M136.8,588h-4.3V487.9h4.3V588z"/>
<path class="st0" d="M121.9,88.2v-4.3l0,0H227v4.3H126.2v345h-4.3C121.9,433.2,121.9,88.2,121.9,88.2z M111.1,433.2h-4.3V68.8h2.1
	h2.1h116V73H111L111.1,433.2L111.1,433.2z"/>
<polygon class="st0" points="246.5,285.2 242.2,285.2 231.3,285.2 227.1,285.2 227.1,280.6 227.1,210.4 231.3,210.4 231.3,280.6 
	242.2,280.6 242.2,210.4 246.5,210.4 246.5,280.6 "/>
<path class="st1" d="M382.2,452.6c0-32.8,26.6-59.4,59.4-59.4v59.4"/>
<path class="st1" d="M545.2,452.6c0-32.8,26.6-59.4,59.4-59.4v59.4"/>
<path class="st1" d="M422.7,513.2c0,28.4,23,51.5,51.5,51.5v-51.5"/>
<path class="st1" d="M373.2,513.2c-33.5,0-60.7-27.2-60.7-60.7h60.7"/>
<path class="st2" d="M291,281.1v6h-1.3v-6l-0.4-0.3l-5.3,6.3h-1.7l6.2-7.2l-5.7-5.8h1.7l5.2,5.5v-5.5h1.3v5.5l5.2-5.5h1.7l-5.7,5.8
	l6.2,7.2h-1.7l-5.3-6.3L291,281.1z M301.3,277.5v7.1l7-7.1h0.1v9.6h-1.2v-7l-7,7h-0.1v-9.6H301.3z M319.3,287.1H318l-3.2-7l-3.2,7
	h-1.3l4.4-9.6h0.2L319.3,287.1z M330.7,277.5v9.6h-1.2v-1.6c-0.5,0.6-1.1,1.1-1.8,1.4c-0.6,0.3-1.3,0.5-2.1,0.5
	c-1.3,0-2.5-0.5-3.5-1.4c-1-1-1.4-2.2-1.4-3.6s0.5-2.6,1.4-3.5c1-1,2.1-1.4,3.5-1.4c0.8,0,1.5,0.2,2.1,0.5s1.2,0.8,1.7,1.5v-1.8h1.3
	V277.5z M325.8,278.5c-0.7,0-1.3,0.2-1.9,0.5s-1,0.8-1.4,1.4c-0.3,0.6-0.5,1.2-0.5,1.9s0.2,1.3,0.5,1.9s0.8,1.1,1.4,1.4
	s1.2,0.5,1.9,0.5c0.7,0,1.3-0.2,1.9-0.5s1.1-0.8,1.4-1.4s0.5-1.2,0.5-2c0-1.1-0.4-2-1.1-2.7C327.7,278.8,326.8,278.5,325.8,278.5
	L325.8,278.5z M337.5,282.8h-0.9l-2.7,4.3h-1.3l2.9-4.4c-0.7-0.1-1.3-0.3-1.8-0.8s-0.7-1-0.7-1.7c0-0.9,0.3-1.5,0.8-2s1.2-0.7,2-0.7
	h2.9v9.6h-1.2L337.5,282.8L337.5,282.8z M337.5,278.6h-0.8c-0.8,0-1.3,0.1-1.6,0.2c-0.3,0.1-0.5,0.3-0.7,0.5s-0.3,0.6-0.3,1
	s0.1,0.7,0.3,1s0.5,0.4,0.7,0.5c0.3,0.1,0.7,0.1,1.5,0.1h0.8v-3.3H337.5z M346.5,277.5h1.2v4l4.5-4h1.7l-4.8,4.4l5.2,5.2h-1.7
	l-4.4-4.4l-0.4,0.3v4.1h-1.2v-9.6H346.5z M360.1,277.3c1.5,0,2.7,0.5,3.7,1.6c0.9,1,1.3,2.1,1.3,3.4s-0.5,2.5-1.4,3.5
	s-2.1,1.5-3.6,1.5s-2.7-0.5-3.6-1.5s-1.4-2.2-1.4-3.5s0.5-2.5,1.3-3.4C357.3,277.8,358.6,277.3,360.1,277.3L360.1,277.3z M360,278.5
	c-1,0-1.9,0.4-2.6,1.1c-0.7,0.8-1.1,1.7-1.1,2.7c0,0.7,0.2,1.3,0.5,1.9s0.8,1.1,1.4,1.4s1.2,0.5,1.9,0.5c0.7,0,1.3-0.2,1.9-0.5
	s1-0.8,1.3-1.4s0.5-1.2,0.5-1.9c0-1-0.4-2-1.1-2.7S361,278.5,360,278.5L360,278.5z M377.7,277.5h0.3l3.2,9.6H380l-2.4-7l-3.7,7h-0.2
	L370,280l-2.4,7.1h-1.3l3.3-9.6h0.3l3.9,7.5L377.7,277.5z M389.9,282.5h-5.6v4.6h-1.2v-9.6h1.2v3.8h5.6v-3.8h1.2v9.6h-1.2V282.5z
	 M403.4,277.5v9.6h-1.2v-1.6c-0.5,0.6-1.1,1.1-1.7,1.4c-0.7,0.3-1.3,0.5-2.1,0.5c-1.4,0-2.5-0.5-3.5-1.4c-1-1-1.4-2.2-1.4-3.6
	s0.5-2.6,1.4-3.5c1-1,2.1-1.4,3.5-1.4c0.8,0,1.5,0.2,2.1,0.5s1.2,0.8,1.7,1.5v-1.8h1.2V277.5z M398.5,278.5c-0.7,0-1.3,0.2-1.9,0.5
	s-1,0.8-1.4,1.4c-0.3,0.6-0.5,1.2-0.5,1.9s0.2,1.3,0.5,1.9s0.8,1.1,1.4,1.4s1.2,0.5,1.9,0.5c0.7,0,1.3-0.2,1.9-0.5s1-0.8,1.4-1.4
	c0.3-0.6,0.5-1.2,0.5-2c0-1.1-0.4-2-1.1-2.7C400.4,278.8,399.5,278.5,398.5,278.5L398.5,278.5z M405.1,277.5h6.3v1h-2.5v8.5h-1.2
	v-8.5h-2.5L405.1,277.5L405.1,277.5z M422.6,277.5v9.6h-1.2v-1.6c-0.5,0.6-1.1,1.1-1.7,1.4c-0.7,0.3-1.3,0.5-2.1,0.5
	c-1.4,0-2.5-0.5-3.5-1.4c-1-1-1.4-2.2-1.4-3.6s0.5-2.6,1.4-3.5c1-1,2.1-1.4,3.5-1.4c0.8,0,1.5,0.2,2.1,0.5s1.2,0.8,1.7,1.5v-1.8h1.2
	V277.5z M417.7,278.5c-0.7,0-1.3,0.2-1.9,0.5s-1,0.8-1.4,1.4c-0.3,0.6-0.5,1.2-0.5,1.9s0.2,1.3,0.5,1.9s0.8,1.1,1.4,1.4
	s1.2,0.5,1.9,0.5c0.7,0,1.3-0.2,1.9-0.5s1.1-0.8,1.4-1.4s0.5-1.2,0.5-2c0-1.1-0.4-2-1.1-2.7C419.6,278.8,418.7,278.5,417.7,278.5
	L417.7,278.5z"/>
<path class="st2" d="M520.5,201.5l-1,0.8c-0.6-0.7-1.2-1.3-2-1.7s-1.6-0.6-2.6-0.6s-2,0.3-2.9,0.7c-0.9,0.5-1.6,1.2-2,2
	c-0.5,0.8-0.7,1.8-0.7,2.8c0,1.6,0.5,2.9,1.6,3.9s2.4,1.6,4.1,1.6c1.8,0,3.3-0.7,4.5-2.1l1,0.8c-0.7,0.8-1.4,1.5-2.4,1.9
	s-2,0.7-3.2,0.7c-2.3,0-4.1-0.7-5.4-2.2c-1.1-1.3-1.6-2.8-1.6-4.6c0-1.9,0.7-3.5,2-4.8s3-1.9,5-1.9c1.2,0,2.3,0.2,3.3,0.7
	C519.1,200,519.9,200.7,520.5,201.5L520.5,201.5z M522.9,202.5h8v9.6h-1.2v-8.4h-5.6v8.4h-1.2V202.5z M543.2,202.5v9.6H542v-1.6
	c-0.5,0.6-1.1,1.1-1.7,1.4c-0.6,0.3-1.3,0.5-2.1,0.5c-1.4,0-2.5-0.5-3.5-1.5s-1.4-2.2-1.4-3.6c0-1.4,0.5-2.6,1.4-3.5
	c1-1,2.1-1.5,3.5-1.5c0.8,0,1.5,0.2,2.1,0.5c0.7,0.3,1.2,0.8,1.7,1.5v-1.8L543.2,202.5L543.2,202.5z M538.3,203.4
	c-0.7,0-1.3,0.2-1.9,0.5c-0.6,0.3-1,0.8-1.4,1.4c-0.3,0.6-0.5,1.2-0.5,1.9s0.2,1.3,0.5,1.9c0.3,0.6,0.8,1.1,1.4,1.4
	c0.6,0.3,1.2,0.5,1.9,0.5s1.3-0.2,1.9-0.5c0.6-0.3,1-0.8,1.4-1.4c0.3-0.6,0.5-1.2,0.5-2c0-1.1-0.4-2-1.1-2.7
	C540.3,203.8,539.3,203.4,538.3,203.4L538.3,203.4z M554.1,212.1h-1.3l-3.2-7l-3.2,7h-1.3l4.4-9.6h0.2L554.1,212.1z M557.2,206.3
	h1.2c0.9,0,1.7,0.1,2.2,0.2c0.5,0.1,1,0.5,1.4,1s0.6,1.1,0.6,1.7c0,0.8-0.3,1.4-0.8,2s-1.4,0.9-2.5,0.9H556v-9.6h1.2V206.3z
	 M557.2,207.4v3.6h1.4c1.7,0,2.5-0.6,2.5-1.8c0-0.3-0.1-0.7-0.3-1s-0.5-0.6-0.8-0.7c-0.3-0.1-1-0.2-1.8-0.2L557.2,207.4L557.2,207.4
	z M571.2,207.4h-5.6v4.6h-1.2v-9.6h1.2v3.8h5.6v-3.8h1.2v9.6h-1.2V207.4z M579.3,207.8h-0.9l-2.7,4.3h-1.3l2.9-4.4
	c-0.7-0.1-1.3-0.4-1.7-0.8c-0.5-0.5-0.7-1-0.7-1.7c0-0.8,0.3-1.5,0.8-2s1.2-0.7,2-0.7h2.9v9.6h-1.2L579.3,207.8L579.3,207.8z
	 M579.3,203.6h-0.8c-0.8,0-1.3,0.1-1.6,0.1c-0.3,0.1-0.5,0.3-0.7,0.5c-0.1,0.2-0.2,0.6-0.2,1s0.1,0.7,0.3,1s0.4,0.4,0.7,0.5
	s0.8,0.1,1.5,0.1h0.8V203.6z"/>
<path class="st2" d="M507.6,335.6h3.4v17.2h-1.7v-15.6h-2.7L507.6,335.6z M519.2,341h-1.6c0-1.7,0.6-3.1,1.7-4.2
	c1.1-1.1,2.4-1.6,4-1.6s2.9,0.5,3.8,1.5c1,1,1.5,2.2,1.5,3.6c0,1-0.2,1.9-0.7,2.7c-0.5,0.9-1.4,2-2.7,3.5l-4.3,4.6h8v1.6h-11.7
	l6.6-7.1c1.3-1.4,2.2-2.5,2.6-3.2c0.4-0.7,0.6-1.4,0.6-2.2c0-1-0.4-1.8-1.1-2.5c-0.7-0.7-1.6-1-2.6-1c-1.1,0-2,0.4-2.7,1.1
	S519.3,339.7,519.2,341L519.2,341z M533.2,349.7l1.6,0.8l-2.4,4.4l-1.2-0.5L533.2,349.7z M545.6,343.4c1.2,0.6,2,1.2,2.5,2
	c0.5,0.7,0.8,1.6,0.8,2.5c0,1.3-0.4,2.5-1.3,3.5c-1,1.2-2.6,1.9-4.6,1.9c-1.9,0-3.3-0.5-4.3-1.6s-1.5-2.3-1.5-3.6
	c0-1,0.3-1.8,0.8-2.6c0.5-0.8,1.4-1.5,2.6-2.1c-0.8-0.4-1.5-1-1.9-1.6c-0.4-0.7-0.6-1.4-0.6-2.1s0.2-1.5,0.7-2.2s1-1.3,1.8-1.7
	c0.8-0.4,1.7-0.6,2.6-0.6c0.9,0,1.7,0.2,2.5,0.6s1.4,1,1.8,1.7c0.4,0.7,0.7,1.4,0.7,2.2c0,0.8-0.2,1.5-0.6,2.1
	C547,342.4,546.4,343,545.6,343.4L545.6,343.4z M543.1,336.9c-0.9,0-1.7,0.3-2.4,0.9c-0.6,0.5-0.9,1.2-0.9,2s0.3,1.4,1,2.1
	c0.7,0.6,1.4,0.9,2.3,0.9c0.6,0,1.1-0.1,1.6-0.4s0.9-0.7,1.2-1.2s0.4-1,0.4-1.4c0-0.7-0.3-1.3-0.8-1.9
	C544.9,337.2,544.1,336.9,543.1,336.9L543.1,336.9z M543.1,344.3c-1.2,0-2.2,0.4-3,1.1c-0.8,0.8-1.2,1.7-1.2,2.7
	c0,0.7,0.2,1.2,0.5,1.8c0.4,0.5,0.9,1,1.4,1.3c0.6,0.3,1.3,0.5,2.2,0.5c1.2,0,2.2-0.4,3-1.1c0.7-0.7,1.1-1.6,1.1-2.6
	s-0.4-1.8-1.2-2.6C545.2,344.6,544.2,344.3,543.1,344.3L543.1,344.3z M561.5,335.6v1.6h-6.1l-0.9,4.7c0.7-0.2,1.4-0.3,2-0.3
	c1.6,0,2.9,0.5,3.9,1.6c1,1,1.5,2.4,1.5,4.1c0,1.1-0.3,2.2-0.8,3.1s-1.2,1.7-2.1,2.2c-0.9,0.5-1.9,0.8-3.1,0.8
	c-1.4,0-2.6-0.4-3.5-1.3s-1.5-2-1.7-3.3h1.8c0.1,0.7,0.4,1.2,0.7,1.6s0.7,0.7,1.3,1c0.5,0.3,1.1,0.4,1.6,0.4c1.1,0,2.1-0.5,2.9-1.3
	c0.8-0.9,1.2-1.9,1.2-3.2c0-1.2-0.4-2.1-1.1-2.8c-0.7-0.7-1.7-1.1-2.9-1.1c-1,0-2.2,0.3-3.7,0.9l1.6-8.6h7.4V335.6z"/>
<path class="st2" d="M378.1,335.6h3.4v17.2h-1.7v-15.6h-2.7L378.1,335.6z M395.8,335.2l1.4,0.9l-4.7,7.1c0.6-0.2,1.2-0.3,1.8-0.3
	c1.4,0,2.6,0.5,3.5,1.5s1.4,2.2,1.4,3.7c0,1-0.2,1.9-0.7,2.7c-0.5,0.8-1.1,1.4-2,1.9s-1.8,0.7-2.7,0.7s-1.8-0.2-2.6-0.7
	c-0.8-0.5-1.4-1.1-1.9-1.9s-0.7-1.7-0.7-2.7c0-0.7,0.1-1.4,0.4-2.2c0.3-0.8,0.8-1.7,1.5-2.8L395.8,335.2z M393.9,344.4
	c-1,0-1.8,0.4-2.6,1.1c-0.7,0.7-1.1,1.6-1.1,2.6s0.4,1.9,1.1,2.6s1.6,1,2.6,1s1.9-0.4,2.6-1c0.7-0.7,1-1.6,1-2.6s-0.4-1.8-1.1-2.6
	C395.8,344.7,394.9,344.4,393.9,344.4L393.9,344.4z M403.8,349.7l1.6,0.8l-2.4,4.4l-1.2-0.5L403.8,349.7z M411.4,335.6h3.4v17.2
	h-1.7v-15.6h-2.7L411.4,335.6z M429,335.2l1.4,0.9l-4.7,7.1c0.6-0.2,1.2-0.3,1.8-0.3c1.4,0,2.6,0.5,3.5,1.5c1,1,1.4,2.2,1.4,3.7
	c0,1-0.2,1.9-0.7,2.7c-0.5,0.8-1.1,1.4-2,1.9s-1.8,0.7-2.7,0.7c-0.9,0-1.8-0.2-2.6-0.7c-0.8-0.5-1.4-1.1-1.9-1.9s-0.7-1.7-0.7-2.7
	c0-0.7,0.1-1.4,0.4-2.2c0.3-0.8,0.8-1.7,1.5-2.8L429,335.2z M427.2,344.4c-1,0-1.9,0.4-2.6,1.1s-1,1.6-1,2.6s0.4,1.9,1,2.6
	c0.7,0.7,1.6,1,2.6,1s1.8-0.4,2.6-1c0.7-0.7,1.1-1.6,1.1-2.6s-0.4-1.8-1.1-2.6C429,344.7,428.1,344.4,427.2,344.4L427.2,344.4z"/>
<path class="st2" d="M155.9,335.6h10.9l-9.2,17.7l-1.4-0.7l8-15.3H156v-1.7H155.9z M170.9,349.7l1.6,0.8l-2.4,4.4l-1.2-0.5
	L170.9,349.7z M182.9,335.2l1.4,0.9l-4.7,7.1c0.6-0.2,1.2-0.3,1.8-0.3c1.4,0,2.5,0.5,3.5,1.5c0.9,1,1.4,2.2,1.4,3.7
	c0,1-0.2,1.9-0.7,2.7c-0.5,0.8-1.1,1.4-2,1.9s-1.8,0.7-2.7,0.7s-1.8-0.2-2.6-0.7s-1.4-1.1-1.9-1.9s-0.7-1.7-0.7-2.7
	c0-0.7,0.1-1.4,0.4-2.2c0.3-0.8,0.8-1.7,1.5-2.8L182.9,335.2z M181,344.4c-1,0-1.8,0.4-2.6,1.1c-0.7,0.7-1.1,1.6-1.1,2.6
	s0.4,1.9,1.1,2.6c0.7,0.7,1.6,1,2.6,1s1.9-0.4,2.6-1c0.7-0.7,1-1.6,1-2.6s-0.3-1.8-1-2.6C182.9,344.7,182,344.4,181,344.4L181,344.4
	z M190.2,341h-1.7c0.1-1.7,0.6-3.1,1.7-4.2c1.1-1.1,2.4-1.6,4.1-1.6c1.6,0,2.9,0.5,3.8,1.5c1,1,1.5,2.2,1.5,3.6c0,1-0.2,1.9-0.7,2.7
	c-0.5,0.9-1.4,2-2.7,3.5l-4.3,4.6h8v1.6h-11.7l6.6-7.1c1.3-1.4,2.2-2.5,2.6-3.2c0.4-0.7,0.6-1.4,0.6-2.2c0-1-0.4-1.8-1.1-2.5
	c-0.7-0.7-1.6-1-2.7-1c-1.1,0-2,0.4-2.7,1.1C190.7,338.7,190.3,339.7,190.2,341L190.2,341z"/>
<path class="st2" d="M178.5,474.6h1.3v4.8l5.2-4.8h1.7l-6.2,5.8l6.7,7.1h-1.7l-5.7-6v6h-1.3V474.6z M187.9,477.9h1.3l3.3,7.3
	l3.2-7.3h1.3l-5.7,13H190l1.9-4.3L187.9,477.9z M197.5,477.9h1.5l2.6,3.5l2.5-3.5h1.5l-3.2,4.5l3.7,5h-1.5l-2.9-4l-2.9,4h-1.5l3.6-5
	L197.5,477.9z M214,482.9h-5.6v4.6h-1.2v-9.6h1.2v3.8h5.6v-3.8h1.2v9.6H214V482.9z M222,483.2h-0.9l-2.7,4.3h-1.3l2.9-4.4
	c-0.7-0.1-1.3-0.3-1.8-0.8c-0.4-0.5-0.7-1-0.7-1.7c0-0.9,0.3-1.5,0.8-2s1.2-0.7,2-0.7h2.9v9.6H222V483.2z M222,479h-0.8
	c-0.8,0-1.3,0-1.6,0.1s-0.5,0.3-0.7,0.5c-0.1,0.3-0.2,0.6-0.2,1s0.1,0.7,0.3,1s0.4,0.4,0.7,0.5s0.7,0.1,1.5,0.1h0.8V479z"/>
<path class="st2" d="M262.5,479.5c1.2,0.6,2,1.2,2.5,2s0.8,1.6,0.8,2.6c0,1.3-0.4,2.5-1.3,3.5c-1,1.2-2.6,1.9-4.5,1.9
	s-3.3-0.6-4.3-1.6c-1-1.1-1.5-2.3-1.5-3.6c0-1,0.3-1.8,0.8-2.6c0.5-0.8,1.4-1.4,2.6-2c-0.9-0.5-1.5-1-1.9-1.6
	c-0.4-0.7-0.6-1.3-0.6-2.1c0-0.8,0.2-1.5,0.7-2.2c0.5-0.7,1.1-1.3,1.9-1.7c0.8-0.4,1.6-0.6,2.6-0.6s1.7,0.2,2.5,0.6s1.4,1,1.8,1.7
	s0.6,1.5,0.6,2.2c0,0.8-0.2,1.5-0.6,2.1C263.9,478.5,263.3,479.1,262.5,479.5L262.5,479.5z M260,473c-0.9,0-1.7,0.3-2.3,0.9
	c-0.6,0.6-0.9,1.2-0.9,2s0.3,1.5,1,2.1s1.4,0.9,2.3,0.9c0.6,0,1.1-0.1,1.6-0.4s0.9-0.7,1.2-1.1c0.3-0.5,0.4-1,0.4-1.5
	c0-0.7-0.3-1.3-0.8-1.9C261.8,473.3,261,473,260,473L260,473z M260,480.4c-1.2,0-2.2,0.4-3,1.2c-0.8,0.8-1.2,1.7-1.2,2.7
	c0,0.6,0.2,1.2,0.5,1.8c0.3,0.6,0.8,1,1.4,1.3s1.3,0.5,2.1,0.5c1.3,0,2.3-0.4,3-1.1s1.1-1.6,1.1-2.6s-0.4-1.8-1.2-2.6
	C262.1,480.7,261.2,480.4,260,480.4L260,480.4z M270.1,485.8l1.6,0.7l-2.4,4.4l-1.2-0.5L270.1,485.8z M277.8,489.4l-1.4-0.9l4.7-7
	c-0.6,0.2-1.2,0.3-1.8,0.3c-1.4,0-2.5-0.5-3.5-1.5s-1.4-2.2-1.4-3.7c0-1,0.2-1.9,0.7-2.7c0.5-0.8,1.1-1.4,2-1.9
	c0.8-0.5,1.8-0.7,2.7-0.7c0.9,0,1.8,0.2,2.6,0.7c0.8,0.5,1.4,1.1,1.9,1.9s0.7,1.7,0.7,2.6c0,0.7-0.1,1.4-0.4,2.2
	c-0.3,0.8-0.8,1.7-1.5,2.8L277.8,489.4z M279.7,480.2c1,0,1.9-0.3,2.6-1s1-1.6,1-2.6s-0.3-1.8-1-2.6c-0.7-0.7-1.6-1.1-2.6-1.1
	s-1.8,0.4-2.6,1.1c-0.7,0.7-1.1,1.6-1.1,2.6s0.4,1.9,1.1,2.6C277.9,479.9,278.7,480.2,279.7,480.2L279.7,480.2z M295.7,479.5
	c1.2,0.6,2,1.2,2.5,2s0.8,1.6,0.8,2.6c0,1.3-0.4,2.5-1.3,3.5c-1,1.2-2.6,1.9-4.6,1.9c-1.9,0-3.3-0.6-4.3-1.6c-1-1.1-1.5-2.3-1.5-3.6
	c0-1,0.3-1.8,0.8-2.6c0.5-0.8,1.4-1.4,2.6-2c-0.9-0.5-1.5-1-1.9-1.6c-0.4-0.7-0.7-1.3-0.7-2.1c0-0.8,0.2-1.5,0.7-2.2
	s1.1-1.3,1.9-1.7c0.8-0.4,1.6-0.6,2.6-0.6s1.7,0.2,2.5,0.6s1.4,1,1.8,1.7c0.5,0.7,0.7,1.5,0.7,2.2c0,0.8-0.2,1.5-0.6,2.1
	C297.2,478.5,296.6,479.1,295.7,479.5L295.7,479.5z M293.2,473c-0.9,0-1.7,0.3-2.3,0.9c-0.6,0.6-0.9,1.2-0.9,2s0.3,1.5,1,2.1
	s1.4,0.9,2.3,0.9c0.6,0,1.1-0.1,1.6-0.4s0.9-0.7,1.2-1.1c0.3-0.5,0.4-1,0.4-1.5c0-0.7-0.3-1.3-0.8-1.9
	C295.1,473.3,294.3,473,293.2,473L293.2,473z M293.3,480.4c-1.2,0-2.2,0.4-3,1.2s-1.2,1.7-1.2,2.7c0,0.6,0.2,1.2,0.5,1.8
	c0.3,0.6,0.8,1,1.4,1.3s1.3,0.5,2.2,0.5c1.2,0,2.3-0.4,3-1.1s1.1-1.6,1.1-2.6s-0.4-1.8-1.2-2.6C295.3,480.7,294.4,480.4,293.3,480.4
	L293.3,480.4z"/>
<path class="st2" d="M434.2,591.2h-1.3c0.3-1,0.7-1.9,1.4-2.5c0.7-0.6,1.5-0.9,2.4-0.9c0.7,0,1.3,0.1,1.9,0.5c0.6,0.3,1,0.7,1.4,1.2
	c0.3,0.5,0.5,1,0.5,1.6c0,1.1-0.6,2-1.6,2.6c0.6,0.3,1.1,0.6,1.5,1.1c0.6,0.7,0.9,1.4,0.9,2.3c0,0.7-0.2,1.4-0.6,2.1
	c-0.4,0.7-0.9,1.2-1.6,1.5c-0.7,0.4-1.4,0.6-2.2,0.6c-1.1,0-2-0.3-2.8-1c-0.8-0.6-1.2-1.6-1.5-2.8h1.3c0.2,0.8,0.5,1.4,0.9,1.8
	c0.5,0.5,1.2,0.7,2,0.7c0.9,0,1.7-0.3,2.3-0.9c0.6-0.5,0.9-1.2,0.9-2c0-0.5-0.1-1-0.4-1.4c-0.3-0.5-0.7-0.8-1.1-1
	c-0.5-0.2-1.2-0.4-2.2-0.4v-1.2c0.6,0,1.1-0.1,1.6-0.3s0.8-0.5,1-0.8s0.3-0.7,0.3-1c0-0.6-0.2-1-0.7-1.4s-1-0.6-1.7-0.6
	c-0.5,0-1,0.2-1.4,0.5C434.9,590,434.5,590.5,434.2,591.2L434.2,591.2z M444.4,598.8l1.2,0.6l-1.8,3.3l-0.9-0.4L444.4,598.8z
	 M455.6,588.2v1.2H451l-0.7,3.5c0.5-0.2,1-0.3,1.5-0.3c1.2,0,2.2,0.4,2.9,1.2c0.8,0.8,1.2,1.8,1.2,3c0,0.9-0.2,1.6-0.6,2.4
	s-0.9,1.2-1.6,1.6c-0.7,0.4-1.4,0.6-2.3,0.6c-1,0-1.9-0.3-2.6-1c-0.7-0.6-1.2-1.5-1.3-2.5h1.3c0.1,0.5,0.3,0.9,0.5,1.2
	s0.5,0.6,0.9,0.7c0.4,0.2,0.8,0.3,1.2,0.3c0.9,0,1.6-0.3,2.2-1c0.6-0.6,0.9-1.4,0.9-2.4c0-0.9-0.3-1.6-0.9-2.1
	c-0.5-0.5-1.3-0.8-2.2-0.8c-0.8,0-1.7,0.2-2.8,0.7l1.2-6.4L455.6,588.2L455.6,588.2z M457.4,594.7c0-1.7,0.2-3,0.5-3.9
	s0.9-1.6,1.6-2.1s1.4-0.7,2.2-0.7c0.9,0,1.6,0.2,2.3,0.7c0.7,0.5,1.2,1.2,1.6,2.2s0.6,2.3,0.6,3.9c0,1.6-0.2,2.9-0.6,3.9
	s-0.9,1.7-1.6,2.2s-1.4,0.7-2.3,0.7c-0.8,0-1.6-0.3-2.2-0.7c-0.7-0.5-1.2-1.2-1.5-2.1C457.5,597.7,457.4,596.4,457.4,594.7
	L457.4,594.7z M458.6,594.7c0,1.5,0.1,2.6,0.4,3.3s0.7,1.3,1.2,1.7s1,0.6,1.6,0.6s1.1-0.2,1.6-0.6c0.5-0.4,0.9-0.9,1.1-1.7
	c0.3-0.9,0.5-2,0.5-3.3s-0.1-2.4-0.4-3.2s-0.7-1.4-1.2-1.8c-0.5-0.4-1-0.6-1.6-0.6s-1.1,0.2-1.6,0.6c-0.5,0.4-0.9,1-1.2,1.7
	S458.6,593.2,458.6,594.7L458.6,594.7z"/>
<path class="st2" d="M441.6,572.3l-0.8,0.6c-0.4-0.5-0.9-1-1.5-1.2s-1.2-0.4-2-0.4s-1.5,0.2-2.2,0.6c-0.7,0.4-1.2,0.9-1.5,1.5
	s-0.5,1.3-0.5,2.1c0,1.2,0.4,2.2,1.2,2.9c0.8,0.8,1.8,1.2,3.1,1.2c1.4,0,2.5-0.5,3.4-1.6l0.8,0.6c-0.5,0.6-1.1,1.1-1.8,1.4
	c-0.7,0.3-1.5,0.5-2.4,0.5c-1.7,0-3-0.6-4-1.7c-0.8-1-1.2-2.1-1.2-3.5s0.5-2.6,1.5-3.6s2.2-1.4,3.7-1.4c0.9,0,1.7,0.2,2.4,0.5
	C440.6,571.2,441.2,571.7,441.6,572.3L441.6,572.3z M447.9,570.3l-4,11.3h-1l4-11.3H447.9z M448.6,573.1h0.9l2.5,5.5l2.4-5.5h1
	l-4.3,9.8h-1l1.4-3.2L448.6,573.1z"/>
<path class="st2" d="M552.4,540.1h1.5l3.1,5l3.1-5h1.5l-3.9,6.2l4.1,6.7h-1.5l-3.4-5.4l-3.4,5.4H552l4.1-6.7L552.4,540.1z
	 M568.4,543.2c1.5,0,2.7,0.5,3.7,1.6c0.9,1,1.3,2.1,1.3,3.5s-0.5,2.5-1.4,3.5s-2.1,1.5-3.6,1.5s-2.7-0.5-3.6-1.5s-1.4-2.2-1.4-3.5
	s0.4-2.5,1.3-3.4C565.7,543.7,566.9,543.2,568.4,543.2L568.4,543.2z M568.4,544.4c-1,0-1.9,0.4-2.6,1.1c-0.7,0.8-1.1,1.7-1.1,2.7
	c0,0.7,0.2,1.3,0.5,1.9s0.8,1,1.4,1.4c0.6,0.3,1.2,0.5,1.9,0.5s1.3-0.1,1.9-0.5c0.6-0.3,1-0.8,1.4-1.4c0.3-0.6,0.5-1.2,0.5-1.9
	c0-1.1-0.4-2-1.1-2.7C570.3,544.8,569.4,544.4,568.4,544.4L568.4,544.4z M583.8,553h-1.3l-3.2-6.9l-3.2,6.9h-1.3l4.4-9.6h0.2
	L583.8,553z M593.7,553h-1.3l-3.2-6.9L586,553h-1.3l4.4-9.6h0.2L593.7,553z"/>
<path class="st2" d="M561.4,471.7v1.6h-6.1l-0.9,4.7c0.8-0.2,1.4-0.3,2-0.3c1.6,0,2.9,0.5,3.9,1.6c1,1,1.5,2.4,1.5,4
	c0,1.1-0.3,2.2-0.8,3.1c-0.5,1-1.2,1.7-2.1,2.2c-0.9,0.5-1.9,0.8-3.1,0.8c-1.4,0-2.6-0.5-3.5-1.3c-1-0.9-1.5-2-1.7-3.3h1.8
	c0.1,0.7,0.3,1.2,0.7,1.6c0.3,0.4,0.7,0.8,1.3,1c0.5,0.2,1.1,0.4,1.6,0.4c1.1,0,2.1-0.4,2.9-1.3c0.8-0.9,1.2-1.9,1.2-3.2
	c0-1.2-0.4-2.1-1.1-2.8c-0.7-0.7-1.7-1.1-2.9-1.1c-1,0-2.2,0.3-3.7,0.9l1.6-8.6L561.4,471.7L561.4,471.7z M566.3,485.8l1.6,0.7
	l-2.4,4.4l-1.1-0.5L566.3,485.8z M572.7,475.7H571c0.3-1.4,0.9-2.5,1.8-3.3c0.9-0.8,2-1.2,3.2-1.2c0.9,0,1.7,0.2,2.5,0.6
	s1.4,1,1.8,1.6c0.4,0.7,0.7,1.4,0.7,2.2c0,1.5-0.7,2.7-2.2,3.5c0.8,0.3,1.5,0.8,2,1.5c0.7,0.9,1.1,1.9,1.1,3.1c0,1-0.3,1.9-0.8,2.8
	s-1.2,1.6-2.1,2c-0.9,0.5-1.9,0.7-3,0.7c-1.5,0-2.7-0.5-3.7-1.3c-1-0.9-1.6-2.1-2-3.8h1.7c0.3,1.1,0.7,1.9,1.3,2.4
	c0.7,0.6,1.6,0.9,2.7,0.9c1.2,0,2.3-0.4,3-1.1c0.8-0.8,1.2-1.6,1.2-2.6c0-0.7-0.2-1.3-0.6-1.9c-0.4-0.6-0.9-1-1.5-1.3
	c-0.7-0.3-1.6-0.5-2.9-0.6v-1.6c0.8,0,1.5-0.1,2.2-0.4s1.1-0.6,1.4-1.1c0.3-0.4,0.4-0.9,0.4-1.4c0-0.8-0.3-1.4-0.9-2
	c-0.6-0.5-1.4-0.8-2.3-0.8c-0.7,0-1.4,0.2-1.9,0.7C573.5,474,573.1,474.7,572.7,475.7L572.7,475.7z M583.6,480.4
	c0-2.3,0.3-4.1,0.7-5.3c0.5-1.2,1.2-2.2,2.1-2.8c0.9-0.7,1.9-1,3-1s2.1,0.3,3,1s1.6,1.6,2.2,2.9c0.5,1.3,0.8,3,0.8,5.2
	s-0.3,3.9-0.8,5.2c-0.5,1.3-1.2,2.2-2.2,2.9c-0.9,0.7-1.9,1-3,1s-2.1-0.3-3-1c-0.9-0.6-1.6-1.6-2.1-2.8
	C583.8,484.4,583.6,482.6,583.6,480.4L583.6,480.4z M585.2,480.4c0,1.9,0.2,3.4,0.5,4.4s0.9,1.8,1.5,2.3c0.7,0.5,1.4,0.8,2.2,0.8
	s1.5-0.3,2.2-0.8s1.2-1.3,1.5-2.3c0.4-1.2,0.7-2.7,0.7-4.4c0-1.8-0.2-3.2-0.6-4.3c-0.4-1.1-0.9-1.9-1.6-2.4
	c-0.7-0.5-1.4-0.8-2.2-0.8s-1.5,0.3-2.2,0.8s-1.2,1.2-1.5,2.3C585.4,477,585.2,478.4,585.2,480.4L585.2,480.4z"/>
<rect x="337.3" y="600.4" class="st3" width="26.2" height="32.6"/>
<rect x="282.8" y="600.4" class="st3" width="54.5" height="32.6"/>
<rect x="251.5" y="600.4" class="st3" width="31.2" height="32.6"/>
<path class="st3" d="M309.4,609v13c0,3.4,2.8,6.2,6.2,6.2h13c3.4,0,6.2-2.8,6.2-6.2v-13c0-3.4-2.8-6.2-6.2-6.2h-13
	C312.1,602.9,309.4,605.6,309.4,609L309.4,609z"/>
<path class="st3" d="M328.4,623.3c0,0.9,0.7,1.6,1.6,1.6s1.6-0.7,1.6-1.6c0-0.9-0.7-1.6-1.6-1.6S328.4,622.4,328.4,623.3
	L328.4,623.3z"/>
<line class="st3" x1="288.4" y1="603.1" x2="288.4" y2="628.4"/>
<line class="st3" x1="291.1" y1="603.1" x2="291.1" y2="628.4"/>
<line class="st3" x1="293.8" y1="603.1" x2="293.8" y2="628.4"/>
<line class="st3" x1="296.6" y1="603.1" x2="296.6" y2="628.4"/>
<line class="st3" x1="299.3" y1="603.1" x2="299.3" y2="628.4"/>
<line class="st3" x1="302" y1="603.1" x2="302" y2="628.4"/>
<line class="st3" x1="304.7" y1="603.1" x2="304.7" y2="628.4"/>
<rect x="254.8" y="602.6" class="st3" width="25.7" height="25.7"/>
<path class="st3" d="M256.2,604.3v4.5h3.1c0.2-0.7,0.7-1.1,1.4-1.4v-3.1H256.2z"/>
<path class="st3" d="M256.2,610.2v4.5h4.5v-3.1c-0.7-0.2-1.1-0.7-1.4-1.4H256.2z"/>
<path class="st3" d="M262.2,604.3v3.1c0.6,0.3,1.1,0.7,1.3,1.4h3.1v-4.5H262.2z"/>
<path class="st3" d="M262.2,611.6v3.1h4.5v-4.5h-3.1C263.3,610.8,262.8,611.4,262.2,611.6L262.2,611.6z"/>
<path class="st3" d="M259.2,609.5c0,1.2,1,2.2,2.2,2.2s2.2-1,2.2-2.2s-1-2.2-2.2-2.2C260.2,607.2,259.2,608.3,259.2,609.5
	L259.2,609.5z"/>
<path class="st3" d="M268.6,604.3v4.5h3.1c0.2-0.7,0.7-1.1,1.3-1.4v-3.1H268.6z"/>
<path class="st3" d="M268.6,610.2v4.5h4.5v-3.1c-0.6-0.2-1.1-0.7-1.3-1.4H268.6z"/>
<path class="st3" d="M274.6,604.3v3.1c0.6,0.3,1.1,0.7,1.3,1.4h3.1v-4.5H274.6z"/>
<path class="st3" d="M274.6,611.6v3.1h4.5v-4.5H276C275.7,610.8,275.2,611.4,274.6,611.6L274.6,611.6z"/>
<path class="st3" d="M271.6,609.5c0,1.2,1,2.2,2.2,2.2s2.2-1,2.2-2.2s-1-2.2-2.2-2.2C272.6,607.2,271.6,608.3,271.6,609.5
	L271.6,609.5z"/>
<path class="st3" d="M256.2,616.3v4.5h3.1c0.2-0.6,0.7-1.1,1.4-1.4v-3.1H256.2z"/>
<path class="st3" d="M256.2,622.2v4.5h4.5v-3.1c-0.7-0.2-1.1-0.7-1.4-1.4H256.2z"/>
<path class="st3" d="M262.2,616.3v3.1c0.6,0.2,1.1,0.7,1.3,1.4h3.1v-4.5H262.2z"/>
<path class="st3" d="M262.2,623.6v3.1h4.5v-4.5h-3.1C263.3,622.8,262.8,623.3,262.2,623.6L262.2,623.6z"/>
<path class="st3" d="M259.2,621.5c0,1.2,1,2.2,2.2,2.2s2.2-1,2.2-2.2s-1-2.2-2.2-2.2C260.2,619.2,259.2,620.2,259.2,621.5
	L259.2,621.5z"/>
<path class="st3" d="M268.6,616.3v4.5h3.1c0.2-0.6,0.7-1.1,1.3-1.4v-3.1H268.6z"/>
<path class="st3" d="M268.6,622.2v4.5h4.5v-3.1c-0.6-0.2-1.1-0.7-1.3-1.4H268.6z"/>
<path class="st3" d="M274.6,616.3v3.1c0.6,0.2,1.1,0.7,1.3,1.4h3.1v-4.5H274.6z"/>
<path class="st3" d="M274.6,623.6v3.1h4.5v-4.5H276C275.7,622.8,275.2,623.3,274.6,623.6L274.6,623.6z"/>
<path class="st3" d="M271.6,621.5c0,1.2,1,2.2,2.2,2.2s2.2-1,2.2-2.2s-1-2.2-2.2-2.2C272.6,619.2,271.6,620.2,271.6,621.5
	L271.6,621.5z"/>
<line class="st3" x1="317.7" y1="630.4" x2="327" y2="630.4"/>
<line class="st3" x1="325" y1="632.3" x2="325" y2="628.2"/>
<line class="st3" x1="319.9" y1="632.9" x2="319.9" y2="628.2"/>
<line class="st3" x1="321.9" y1="630.4" x2="313.6" y2="619.7"/>
<rect x="337.3" y="570.4" class="st3" width="26.2" height="29.9"/>
<rect x="216.5" y="600.4" class="st3" width="35.1" height="32.6"/>
<polygon class="st3" points="337.3,549.6 337.3,570.4 363.5,570.4 363.5,540.6 346.3,540.6 "/>
<rect x="210.7" y="531.8" class="st3" width="48" height="31.5"/>
<path class="st3" d="M232.4,528.6l-1.1-18.2h-13.8l-1.1,18.2H232.4z M217.3,513.2h14.1"/>
<path class="st3" d="M253.8,528.6l-1.1-18.2h-13.8l-1.1,18.2H253.8z M238.7,513.2h14.1"/>
<path class="st3" d="M232.4,566.1l-1.1,18.2h-13.8l-1.1-18.2H232.4z M217.3,581.6h14.1"/>
<path class="st3" d="M253.8,566.1l-1.1,18.2h-13.8l-1.1-18.2H253.8z M238.7,581.6h14.1"/>
<path class="st3" d="M261,555.3l18.1-1.1v-13.9l-18.1-1.1V555.3z M276.5,540.1v14.2"/>
<path class="st3" d="M208.4,539.9l-18.1,1.1v13.9l18.1,1.1V539.9z M193,555v-14.2"/>
<polygon class="st3" points="489.2,307.4 467.3,307.4 467.3,283.8 485.5,283.8 489.2,293.3 "/>
<polygon class="st3" points="556.5,313.3 497,313.3 482.9,277.2 482.9,277.2 497,241 556.5,241 556.5,277.2 556.5,277.2 "/>
<polygon class="st4" points="502.9,310.6 496.9,312.9 482.9,277.2 "/>
<rect x="464.8" y="239.2" class="st3" width="94.3" height="76"/>
<polygon class="st3" points="489.2,247 467.3,247 467.3,270.6 485.5,270.6 489.2,261 "/>
<polygon class="st4" points="502.9,243.7 496.9,241.4 482.9,277.2 "/>
<rect x="464.8" y="217" class="st3" width="16.7" height="20.6"/>
<rect x="464.8" y="316.8" class="st3" width="16.7" height="20.6"/>
<rect x="464.8" y="347.9" class="st3" width="16.7" height="95"/>
<line class="st3" x1="464.8" y1="347.9" x2="481.5" y2="442.9"/>
<line class="st3" x1="481.5" y1="347.9" x2="464.8" y2="442.9"/>
<rect x="598.9" y="297.8" class="st3" width="24.3" height="38.3"/>
<rect x="598.9" y="259.4" class="st3" width="24.3" height="38.3"/>
<rect x="598.9" y="221.1" class="st3" width="24.3" height="38.4"/>
<line class="st3" x1="611.1" y1="232.7" x2="611.1" y2="324.5"/>
<rect x="481.5" y="426.2" class="st3" width="52.5" height="16.6"/>
<line class="st3" x1="481.5" y1="442.9" x2="534" y2="426.2"/>
<line class="st3" x1="481.5" y1="426.2" x2="534" y2="442.9"/>
<path class="st3" d="M596.7,189.5c-11.3,0-20.5-9.2-20.5-20.5s9.2-20.5,20.5-20.5s20.5,9.2,20.5,20.5S608.1,189.5,596.7,189.5
	L596.7,189.5z"/>
<path class="st3" d="M555.8,170.6l18.3-18.5c1.6-1.6,1.6-4.3,0-6L557.8,130c-1.7-1.6-4.3-1.6-6,0l-18.3,18.5c-1.6,1.6-1.6,4.3,0.1,6
	l16.3,16.1C551.5,172.3,554.2,172.2,555.8,170.6L555.8,170.6z"/>
<path class="st3" d="M575.4,144.7L575.4,144.7c0.8-0.8,0.7-2,0-2.7l-13.5-13.4c-0.8-0.8-2-0.7-2.7,0l0,0c-0.8,0.8-0.7,2,0,2.7
	l13.5,13.4C573.4,145.5,574.7,145.5,575.4,144.7L575.4,144.7z"/>
<path class="st3" d="M548.5,172L548.5,172c0.7-0.8,0.7-2,0-2.7L535,155.9c-0.7-0.8-2-0.8-2.7,0l0,0c-0.7,0.8-0.7,2,0,2.7l13.5,13.4
	C546.5,172.8,547.7,172.8,548.5,172L548.5,172z"/>
<path class="st3" d="M555.2,128.4c0.9-0.3,1.3-1.2,1-2.1s-1.2-1.3-2.1-1c-3,1-5.8,2.4-8.4,4.1c-2.6,1.6-5.1,3.6-7.3,5.8
	s-4.1,4.6-5.7,7.3c-1.6,2.6-2.9,5.4-3.9,8.4c-0.3,0.9,0.2,1.8,1,2.1c0.9,0.3,1.8-0.2,2.1-1.1c0.9-2.7,2.1-5.3,3.6-7.7
	s3.2-4.6,5.2-6.7c2-2,4.3-3.9,6.7-5.4C549.9,130.6,552.5,129.3,555.2,128.4L555.2,128.4z"/>
<rect x="246.5" y="409" class="st3" width="124.4" height="33.8"/>
<line class="st3" x1="246.5" y1="427.6" x2="370.9" y2="427.6"/>
<line class="st3" x1="288.1" y1="440.8" x2="304.2" y2="413.3"/>
<line class="st3" x1="299.8" y1="441.2" x2="315.7" y2="414.2"/>
<line class="st3" x1="258.8" y1="442.9" x2="258.8" y2="412"/>
<line class="st3" x1="265.7" y1="442.9" x2="265.7" y2="412.1"/>
<line class="st3" x1="275" y1="442.9" x2="275" y2="412.1"/>
<line class="st3" x1="338.2" y1="442.9" x2="338.2" y2="412.5"/>
<line class="st3" x1="345.1" y1="442.9" x2="345.1" y2="412"/>
<line class="st3" x1="354.2" y1="442.9" x2="354.2" y2="411.9"/>
<path class="st3" d="M342.7,354.7l-15.9,16.1c-1.4,1.4-1.4,3.8,0,5.2l14.2,14c1.4,1.4,3.8,1.4,5.2,0l15.9-16.1
	c1.4-1.4,1.4-3.8,0-5.2l-14.2-14C346.5,353.2,344.2,353.3,342.7,354.7L342.7,354.7z"/>
<path class="st3" d="M325.7,377.2L325.7,377.2c-0.7,0.7-0.7,1.7,0,2.4l11.7,11.6c0.7,0.7,1.8,0.7,2.4,0l0,0c0.7-0.7,0.7-1.8,0-2.4
	l-11.7-11.6C327.4,376.5,326.3,376.5,325.7,377.2L325.7,377.2z"/>
<path class="st3" d="M349.1,353.5L349.1,353.5c-0.7,0.7-0.7,1.7,0,2.4l11.7,11.6c0.7,0.7,1.8,0.7,2.4,0l0,0c0.7-0.7,0.7-1.8,0-2.4
	l-11.8-11.6C350.8,352.8,349.8,352.8,349.1,353.5L349.1,353.5z"/>
<path class="st3" d="M343.3,391.4c-0.8,0.3-1.2,1.1-0.9,1.8c0.3,0.8,1.1,1.2,1.9,0.9c2.6-0.9,5-2.1,7.3-3.5s4.4-3.1,6.3-5.1
	c1.9-1.9,3.5-4.1,5-6.3c1.4-2.3,2.6-4.7,3.5-7.3c0.3-0.8-0.2-1.6-0.9-1.8c-0.8-0.3-1.6,0.1-1.8,0.9c-0.8,2.4-1.8,4.6-3.1,6.7
	c-1.3,2.1-2.8,4.1-4.6,5.8c-1.8,1.8-3.7,3.4-5.8,4.7C347.9,389.5,345.6,390.6,343.3,391.4L343.3,391.4z"/>
<rect x="430.7" y="221.5" class="st3" width="24.4" height="38.3"/>
<rect x="430.7" y="183.2" class="st3" width="24.4" height="38.3"/>
<rect x="430.7" y="144.8" class="st3" width="24.4" height="38.3"/>
<line class="st3" x1="442.9" y1="156.4" x2="442.9" y2="248.2"/>
<path class="st3" d="M292.5,396.9c-11.3,0-20.5-9.2-20.5-20.5s9.2-20.5,20.5-20.5s20.5,9.2,20.5,20.5
	C313,387.8,303.8,396.9,292.5,396.9L292.5,396.9z"/>
<path class="st3" d="M459.9,622.1c0,6.3-7.3,11.3-16.4,11.3c-9,0-16.4-5.1-16.4-11.3c0-6.3,7.3-11.3,16.4-11.3
	S459.9,615.9,459.9,622.1L459.9,622.1z"/>
<path class="st3" d="M456.3,632.9v-3.7c-2,1.7-4.7,3-7.8,3.7H456.3z M430.8,629.2v3.7h7.7C435.5,632.2,432.8,631,430.8,629.2
	L430.8,629.2z"/>
<path class="st3" d="M447.2,611.1c0,0,7.2,4.2,6.2,8.4s-3.9,3.1-5.8,6.2c-1.9,3-0.8,6.4-6.9,7.7"/>
<path class="st3" d="M436.4,623.5c0,1.2-1,2.2-2.2,2.2s-2.2-1-2.2-2.2s1-2.2,2.2-2.2C435.4,621.2,436.4,622.2,436.4,623.5
	L436.4,623.5z"/>
<path class="st3" d="M498.2,610.3c0,5.8-1.9,10.1-4.8,12.6l-0.3-0.8h-11.8l-0.3,0.8c-2.9-2.5-4.8-6.8-4.8-12.6
	c0-9.4,6.5-19.2,11-19.2C491.7,591.1,498.2,600.9,498.2,610.3L498.2,610.3z"/>
<rect x="483.8" y="619.9" class="st3" width="7.5" height="9.4"/>
<polygon class="st3" points="493.2,622.1 497.5,632.9 477,632.9 481.3,622.1 483.8,622.1 483.8,629.4 491.3,629.4 491.3,622.1 "/>
<line class="st3" x1="62.5" y1="88.2" x2="106.8" y2="88.2"/>
<line class="st3" x1="62.5" y1="632.9" x2="132.6" y2="632.9"/>
<polygon class="st5" points="77.2,85.7 76.9,85.1 67.3,90 68,91.3 77.6,86.3 "/>
<rect x="71.8" y="88.2" class="st5" width="1.4" height="544.7"/>
<polygon class="st5" points="77.2,630.5 77.6,631.1 68,636 67.3,634.8 76.9,629.8 "/>
<path class="st2" d="M58.4,377.8c0.6-1.2,1.2-2,2-2.5c0.7-0.5,1.6-0.8,2.5-0.8c1.3,0,2.5,0.4,3.5,1.3c1.2,1.1,1.9,2.6,1.9,4.6
	c0,1.9-0.5,3.3-1.6,4.3s-2.3,1.5-3.6,1.5c-1,0-1.8-0.3-2.6-0.8s-1.4-1.4-2-2.6c-0.5,0.9-1,1.5-1.6,1.9s-1.3,0.6-2.1,0.6
	s-1.5-0.2-2.2-0.7s-1.3-1.1-1.7-1.9s-0.6-1.6-0.6-2.6c0-0.9,0.2-1.7,0.6-2.5c0.4-0.8,1-1.4,1.7-1.8s1.4-0.7,2.2-0.7s1.5,0.2,2.1,0.6
	C57.4,376.4,57.9,377,58.4,377.8L58.4,377.8z M51.9,380.4c0,0.9,0.3,1.7,0.8,2.3c0.6,0.6,1.2,0.9,2,0.9s1.5-0.3,2.1-1
	s0.9-1.4,0.9-2.3c0-0.6-0.1-1.1-0.4-1.6c-0.3-0.5-0.7-0.9-1.2-1.2s-1-0.4-1.5-0.4c-0.7,0-1.3,0.3-1.9,0.9
	C52.1,378.5,51.9,379.3,51.9,380.4L51.9,380.4z M59.2,380.3c0,1.2,0.4,2.2,1.2,3s1.7,1.2,2.7,1.2c0.6,0,1.2-0.2,1.8-0.5
	s1-0.8,1.3-1.4s0.5-1.3,0.5-2.2c0-1.2-0.4-2.2-1.1-3c-0.7-0.7-1.6-1.1-2.6-1.1s-1.8,0.4-2.6,1.2S59.2,379.2,59.2,380.3L59.2,380.3z
	 M54.6,370.5v1.8c-1.4-0.3-2.5-0.9-3.3-1.8s-1.2-2-1.2-3.2c0-0.9,0.2-1.7,0.6-2.5c0.4-0.8,1-1.4,1.7-1.8s1.4-0.7,2.2-0.7
	c1.5,0,2.7,0.7,3.5,2.2c0.3-0.8,0.8-1.5,1.5-2c0.9-0.7,1.9-1.1,3.1-1.1c1,0,1.9,0.3,2.8,0.8s1.6,1.2,2,2.1c0.5,0.9,0.7,1.9,0.7,3
	c0,1.5-0.4,2.7-1.3,3.7s-2.1,1.6-3.8,2v-1.7c1.1-0.3,1.9-0.7,2.4-1.3c0.6-0.7,1-1.6,1-2.7c0-1.2-0.4-2.3-1.1-3
	c-0.7-0.8-1.6-1.1-2.6-1.1c-0.7,0-1.3,0.2-1.9,0.6c-0.6,0.4-1,0.9-1.3,1.5c-0.3,0.7-0.5,1.6-0.5,3h-1.6c0-0.8-0.1-1.5-0.4-2.2
	c-0.3-0.6-0.6-1.1-1-1.4s-0.9-0.5-1.4-0.5c-0.7,0-1.4,0.3-1.9,0.9c-0.6,0.6-0.8,1.3-0.8,2.2c0,0.7,0.2,1.4,0.6,1.9
	S53.6,370.2,54.6,370.5L54.6,370.5z M59.2,359.7c-2.3,0-4-0.2-5.3-0.7c-1.2-0.5-2.2-1.2-2.8-2.1s-1-1.9-1-3s0.3-2.1,1-3
	c0.6-0.9,1.6-1.6,2.9-2.2c1.3-0.5,3-0.8,5.2-0.8s3.9,0.3,5.2,0.8c1.3,0.5,2.2,1.2,2.9,2.2c0.7,0.9,1,1.9,1,3s-0.3,2.1-1,3
	c-0.6,0.9-1.6,1.6-2.8,2.1C63.2,359.4,61.5,359.7,59.2,359.7L59.2,359.7z M59.3,358c1.9,0,3.4-0.2,4.4-0.5c1-0.3,1.7-0.9,2.3-1.5
	c0.5-0.7,0.8-1.4,0.8-2.2c0-0.8-0.3-1.5-0.8-2.2s-1.2-1.2-2.3-1.5c-1.2-0.4-2.7-0.7-4.4-0.7s-3.1,0.2-4.3,0.6
	c-1.1,0.4-1.9,0.9-2.4,1.6s-0.8,1.4-0.8,2.1c0,0.8,0.3,1.5,0.8,2.2s1.3,1.2,2.3,1.5C55.8,357.9,57.3,358,59.3,358L59.3,358z
	 M50.6,335.4h1.6v6.1l4.7,0.9c-0.2-0.7-0.3-1.4-0.3-2c0-1.6,0.5-2.9,1.6-3.9c1-1,2.4-1.5,4-1.5c1.1,0,2.2,0.3,3.1,0.8
	c1,0.5,1.7,1.2,2.2,2.1s0.8,1.9,0.8,3.1c0,1.4-0.4,2.6-1.3,3.5s-2,1.5-3.3,1.7v-1.8c0.7-0.1,1.2-0.4,1.6-0.7c0.4-0.3,0.8-0.7,1-1.3
	c0.3-0.5,0.4-1.1,0.4-1.6c0-1.1-0.4-2.1-1.3-2.9s-1.9-1.2-3.2-1.2c-1.2,0-2.1,0.4-2.8,1.1s-1.1,1.7-1.1,2.9c0,1,0.3,2.2,0.9,3.7
	l-8.6-1.6V335.4z"/>
<line class="st3" x1="126.2" y1="46.9" x2="126.2" y2="68.8"/>
<line class="st3" x1="623.3" y1="46.9" x2="623.3" y2="94.9"/>
<polygon class="st5" points="123.7,63.7 123.1,63.4 128.1,53.8 129.3,54.5 124.4,64 "/>
<rect x="126.2" y="58.2" class="st5" width="497.1" height="1.4"/>
<polygon class="st5" points="620.8,63.7 621.4,64 626.4,54.5 625.1,53.8 620.2,63.4 "/>
<path class="st2" d="M349.5,37.6h10.9l-9.2,17.7l-1.4-0.7l8-15.3h-8.2L349.5,37.6L349.5,37.6z M362.8,37.6h10.9l-9.2,17.7l-1.4-0.7
	l8-15.3h-8.2L362.8,37.6L362.8,37.6z M378.8,37.6h3.4v17.2h-1.7V39.2h-2.7L378.8,37.6z M399.5,37.6v1.6h-6.1l-0.9,4.7
	c0.7-0.2,1.4-0.3,2-0.3c1.6,0,2.9,0.5,3.9,1.6c1,1,1.5,2.4,1.5,4.1c0,1.1-0.3,2.2-0.8,3.1c-0.5,0.9-1.2,1.7-2.1,2.2
	s-1.9,0.7-3.1,0.7c-1.4,0-2.6-0.4-3.5-1.3c-1-0.9-1.5-2-1.7-3.3h1.8c0.1,0.7,0.3,1.2,0.7,1.6c0.3,0.4,0.7,0.7,1.2,1s1.1,0.4,1.7,0.4
	c1.1,0,2.1-0.4,2.9-1.3c0.8-0.9,1.2-1.9,1.2-3.2c0-1.2-0.3-2.1-1.1-2.8c-0.7-0.7-1.7-1.1-2.9-1.1c-1,0-2.2,0.3-3.7,0.9l1.6-8.6
	H399.5z"/>
<polygon class="st6" points="111.1,433.2 111.1,73 227.1,73 227.1,83.9 121.9,83.9 121.9,433.2 "/>
<rect x="483.4" y="99.2" class="st6" width="98.6" height="10.9"/>
<rect x="231.3" y="210.4" class="st6" width="10.9" height="70.2"/>
<rect x="136.8" y="487.9" class="st6" width="10.9" height="100.1"/>
<rect x="305.5" y="99.2" class="st6" width="98.1" height="10.9"/>
<path class="st1" d="M227.1,283.9c32.8,0,59.4,26.6,59.4,59.4h-59.4"/>
<path class="st1" d="M603.1,578.2c0,32.8-26.6,59.4-59.4,59.4v-59.4"/>
<rect id="_x3C_Slice_x3E__3_" x="-100.2" y="-27" class="st7" width="904" height="780"/>
<g>
	<path class="st2" d="M144.8,106.9c0,2.3-1.6,3.3-3.1,3.3c-1.7,0-3-1.2-3-3.2c0-2.1,1.4-3.3,3.1-3.3
		C143.6,103.6,144.8,105,144.8,106.9z M139.8,106.9c0,1.4,0.8,2.4,1.9,2.4c1.1,0,1.9-1,1.9-2.4c0-1.1-0.5-2.4-1.9-2.4
		C140.4,104.5,139.8,105.7,139.8,106.9z"/>
	<path class="st2" d="M151,101.6c-0.3,0.1-0.9,0.2-1.3,0.3c-1,0.2-1.8,0.5-2.2,1.2c-0.4,0.6-0.6,1.4-0.7,2.1l0,0
		c0.4-0.9,1.3-1.4,2.2-1.4c1.5,0,2.7,1.1,2.7,3.1c0,2.1-1.1,3.3-2.9,3.3c-2.2,0-2.9-2.1-2.9-4.2c0-1.4,0.3-2.6,1-3.5
		c0.6-0.9,1.5-1.3,2.7-1.5c0.5-0.1,1.1-0.2,1.6-0.3L151,101.6z M148.8,104.6c-0.7,0-1.2,0.4-1.4,0.9c-0.2,0.4-0.3,0.8-0.3,1.3
		c0,1,0.5,2.5,1.8,2.5s1.7-1.2,1.7-2.4C150.5,106,150.1,104.6,148.8,104.6z"/>
	<path class="st2" d="M154.2,103.8v5.4h2.2v-5.4h1.1v5.4h2.2v-5.4h1.1v5.4h0.6l-0.1,2.8h-0.9l-0.1-2h-7.4v-6.3L154.2,103.8
		L154.2,103.8z"/>
	<path class="st2" d="M166.3,110.1l-0.1-0.8l0,0c-0.4,0.5-1,0.9-1.9,0.9c-1.3,0-1.9-0.9-1.9-1.8c0-1.5,1.4-2.4,3.8-2.3V106
		c0-0.5-0.1-1.5-1.4-1.5c-0.6,0-1.2,0.2-1.6,0.5l-0.3-0.8c0.5-0.3,1.3-0.6,2.1-0.6c1.9,0,2.4,1.3,2.4,2.6v2.4c0,0.5,0,1.1,0.1,1.5
		C167.5,110.1,166.3,110.1,166.3,110.1z M166.2,106.9c-1.2,0-2.7,0.2-2.7,1.4c0,0.7,0.5,1.1,1.1,1.1c0.8,0,1.3-0.5,1.5-1.1
		c0-0.1,0.1-0.2,0.1-0.4L166.2,106.9L166.2,106.9z"/>
	<path class="st2" d="M173.8,110.1h-1.1v-2.6h-0.8c-0.5,0-0.8,0.1-1.1,0.4c-0.5,0.4-0.6,1.2-0.9,1.8c-0.1,0.2-0.2,0.4-0.3,0.5h-1.2
		c0.1-0.2,0.3-0.4,0.4-0.7c0.3-0.6,0.4-1.4,1-1.9c0.2-0.2,0.4-0.3,0.7-0.4l0,0c-0.8-0.1-1.7-0.6-1.7-1.6c0-0.7,0.4-1.1,0.8-1.4
		c0.5-0.3,1.3-0.4,2.1-0.4s1.5,0.1,2,0.1v6.2H173.8z M172.7,104.5c-0.3,0-0.5-0.1-0.9-0.1c-0.8,0-1.7,0.2-1.7,1.1
		c0,0.8,1,1.1,1.7,1.1c0.5,0,0.7,0,1,0v-2.1H172.7z"/>
	<path class="st2" d="M144.3,116.8v6.3h-1.1v-5.4h-2.9v5.4h-1.1v-6.3H144.3z"/>
	<path class="st2" d="M150.9,116.8v6.3h-1.1v-5.4h-2.2v1.6c0,1.8-0.2,3-1,3.5c-0.3,0.2-0.7,0.4-1.2,0.4l-0.1-0.9
		c0.2,0,0.5-0.1,0.6-0.3c0.6-0.4,0.6-1.3,0.6-2.7v-2.5H150.9z"/>
	<path class="st2" d="M158.5,119.9c0,2.3-1.6,3.3-3.1,3.3c-1.7,0-3-1.2-3-3.2c0-2.1,1.4-3.3,3.1-3.3
		C157.3,116.6,158.5,118,158.5,119.9z M153.5,119.9c0,1.4,0.8,2.4,1.9,2.4c1.1,0,1.9-1,1.9-2.4c0-1.1-0.5-2.4-1.9-2.4
		C154.1,117.5,153.5,118.7,153.5,119.9z"/>
	<path class="st2" d="M161,116.8v5.4h2.2v-5.4h1.1v5.4h2.2v-5.4h1.1v5.4h0.6l-0.1,2.8h-0.9l-0.1-2h-7.4v-6.3L161,116.8L161,116.8z"
		/>
	<path class="st2" d="M173.2,123.1l-0.1-0.8l0,0c-0.4,0.5-1,0.9-1.9,0.9c-1.3,0-1.9-0.9-1.9-1.8c0-1.5,1.4-2.4,3.8-2.3V119
		c0-0.5-0.1-1.5-1.4-1.5c-0.6,0-1.2,0.2-1.6,0.5l-0.3-0.8c0.5-0.3,1.3-0.6,2.1-0.6c1.9,0,2.4,1.3,2.4,2.6v2.4c0,0.5,0,1.1,0.1,1.5
		C174.4,123.1,173.2,123.1,173.2,123.1z M173,119.9c-1.2,0-2.7,0.2-2.7,1.4c0,0.7,0.5,1.1,1.1,1.1c0.8,0,1.3-0.5,1.5-1.1
		c0-0.1,0.1-0.2,0.1-0.4L173,119.9L173,119.9z"/>
	<path class="st2" d="M180.8,116.8v5.4h0.7l-0.1,2.8h-0.9l-0.1-2H176l-0.1,2H175l-0.1-2.8h0.5c0.3-0.4,0.5-0.8,0.6-1.3
		c0.2-0.8,0.4-1.6,0.4-2.5v-1.6H180.8z M177.6,118.7c0,0.8-0.1,1.6-0.3,2.3c-0.1,0.4-0.3,0.8-0.5,1.2h2.9v-4.5h-2.1L177.6,118.7
		L177.6,118.7z"/>
	<path class="st2" d="M183.9,116.8v2.1c0.3-0.1,0.7-0.1,1-0.1c1.4,0,2.9,0.4,2.9,2.1c0,0.7-0.3,1.1-0.7,1.4
		c-0.7,0.6-1.8,0.7-2.7,0.7c-0.6,0-1.2,0-1.7-0.1v-6.3h1.2V116.8z M183.9,122.3c0.2,0,0.5,0.1,0.8,0.1c0.9,0,2-0.3,2-1.3
		c0-1.1-1.1-1.3-2-1.3c-0.3,0-0.6,0-0.8,0.1V122.3z"/>
	<path class="st2" d="M149.4,135.1H143l-0.7,4.3c0.4-0.1,0.8-0.1,1.4-0.1c1.3,0,2.6,0.3,3.6,0.9c1.3,0.8,2.4,2.2,2.4,4.3
		c0,3.3-2.6,5.8-6.3,5.8c-1.8,0-3.4-0.5-4.2-1l0.6-1.7c0.7,0.4,2.1,0.9,3.6,0.9c2.2,0,4-1.4,4-3.7c0-2.2-1.5-3.7-4.9-3.7
		c-1,0-1.7,0.1-2.3,0.2l1.1-8.1h8.1L149.4,135.1L149.4,135.1z"/>
	<path class="st2" d="M162.8,135.1h-6.4l-0.7,4.3c0.4-0.1,0.8-0.1,1.4-0.1c1.3,0,2.6,0.3,3.6,0.9c1.3,0.8,2.4,2.2,2.4,4.3
		c0,3.3-2.6,5.8-6.3,5.8c-1.8,0-3.4-0.5-4.2-1l0.6-1.7c0.7,0.4,2.1,0.9,3.6,0.9c2.2,0,4-1.4,4-3.7c0-2.2-1.5-3.7-4.9-3.7
		c-1,0-1.7,0.1-2.3,0.2l1.1-8.1h8.1L162.8,135.1L162.8,135.1z"/>
	<path class="st2" d="M166.9,137.5h2.8l2.3,6.3c0.3,0.9,0.9,2.5,1.1,3.5h0.1c0.3-0.9,1-2.9,1.5-4.3l2-5.5h2.8l0.9,12.6h-2.2l-0.3-6
		c-0.1-1.4-0.2-3-0.2-4.5h-0.1c-0.3,1.1-0.7,2.2-1.4,4.1l-2.4,6.3h-1.7l-2.2-6.2c-0.4-1.2-0.9-3-1.2-4.2h-0.1
		c-0.1,1.5-0.1,3.1-0.2,4.5l-0.3,6H166L166.9,137.5z"/>
	<path class="st2" d="M181.8,142.2l1.6-1.5c2.2-2,3.3-3.2,3.3-4.5c0-1-0.6-1.8-2-1.8c-0.9,0-1.7,0.5-2.2,0.8L182,134
		c0.7-0.6,1.9-1.1,3.2-1.1c2.4,0,3.5,1.5,3.5,2.9c0,2-1.5,3.4-3.5,5.1l-0.8,0.7v0.1h4.4v1.4h-7L181.8,142.2L181.8,142.2z"/>
</g>
<rect x="373.5" y="523.1" class="st3" width="36.9" height="109.8"/>
<path class="st3" d="M376.3,622.6v-90.8c0-3,1.8-5.5,4.1-5.5h23.1c2.3,0,4.1,2.5,4.1,5.5v90.8c0,3.1-1.8,5.5-4.1,5.5h-23.1
	C378.1,628.1,376.3,625.7,376.3,622.6L376.3,622.6z"/>
<path class="st3" d="M376.3,602c0,0,4.1,13.2,15.7,13.2s15.6-12.7,15.6-12.7"/>
<path class="st3" d="M389.5,537c0-1.3,1.1-2.4,2.4-2.4s2.4,1.1,2.4,2.4c0,1.3-1.1,2.4-2.4,2.4S389.5,538.3,389.5,537L389.5,537z"/>
<rect x="316.4" y="197.3" class="st3" width="24.5" height="25"/>
<rect x="274.4" y="144.4" class="st3" width="78.4" height="34.4"/>
<path class="st3" d="M274.4,178.8h34.4v34.4h-21.5v-0.1c-0.7-5.1-1.9-7.9-3.4-7.9c-1,0-2.5,4.1-3.5,8h-6V178.8z"/>
<path class="st3" d="M274.4,213.2h6.1c-0.5,1.7-0.8,3.4-1,4.6c-0.5,3.8-0.9,7.9,1.8,9.8c0,0,6.7-9.3,6.1-14.4h21.5v30.7h-34.5V213.2
	z"/>
<path class="st3" d="M274.4,144.4h51.7v6.4h-3.5c0.7-1.1,0.9-2,0.6-2.6c-0.7-1.2-9.4,1-12.8,2.6h-10.6c-2.1-0.2-4.3-0.2-5.7-0.1
	c-0.6,0.1-1.1,0.1-1.7,0.1h-18V144.4z"/>
<path class="st3" d="M280.6,150.8v1.2c-1.2,1.5-2.3,9.4-2.2,12.9c0.1,3.4,0.2,7,2.2,8.8v5.1h-6.2v-28H280.6z"/>
<path class="st3" d="M280.6,178.8v8c-0.9,2.9-1.5,8.3-1.4,11c0.1,2.9,0.2,5.9,1.4,7.9v6.9c-0.1,0.2-0.1,0.5-0.2,0.7h-6v-34.4
	L280.6,178.8L280.6,178.8z"/>
<path class="st3" d="M280.6,227.1v16.8h-6.2v-30.7h6.1c-0.5,1.7-0.8,3.4-1,4.6C279.1,221.2,278.7,224.9,280.6,227.1L280.6,227.1z"/>
<path class="st3" d="M302.9,157.4c0,0,11.4,1.1,15.3-2.2c3.9-3.2,5.6-5.7,4.9-7c-0.7-1.2-9.4,1-12.8,2.6
	C306.8,152.3,303.2,154.1,302.9,157.4L302.9,157.4z"/>
<path class="st3" d="M284.9,154.3c0,0,10.4,5,15.1,3.3s7.2-3.5,6.9-4.9s-9.2-2.3-13-2C290.2,150.9,286.2,151.3,284.9,154.3
	L284.9,154.3z"/>
<path class="st3" d="M281.5,174.3c0,0,5.4-10.4,3.9-15.3c-1.4-4.9-3-7.5-4.5-7.3s-2.7,9.2-2.6,13.1
	C278.5,168.7,278.7,172.8,281.5,174.3L281.5,174.3z"/>
<path class="st3" d="M282.3,207.2c0,0,5.4-10.3,3.9-15.3c-1.4-4.9-3-7.5-4.5-7.3c-1.4,0.2-2.7,9.3-2.6,13.1
	C279.3,201.6,279.5,205.7,282.3,207.2L282.3,207.2z"/>
<path class="st3" d="M281.2,227.6c0,0,6.8-9.4,6.1-14.5s-1.9-7.9-3.4-7.9s-4,8.7-4.5,12.6C279,221.6,278.6,225.7,281.2,227.6
	L281.2,227.6z"/>
<path class="st3" d="M289.7,244.1c0,0,0.7-9.9-2.1-13.3c-2.7-3.3-4.9-4.8-5.9-4.1s1,8.2,2.4,11.1C285.5,240.8,287,243.9,289.7,244.1
	L289.7,244.1z"/>
</svg>
